<svg xmlns="http://www.w3.org/2000/svg" viewBox="0 0 360 190" role="img" aria-label="Ethio Robotics logo">
  <defs>
    <filter id="shadow" x="-20%" y="-20%" width="140%" height="140%">
      <feDropShadow dx="0" dy="5" stdDeviation="4" flood-color="#101426" flood-opacity="0.18" />
    </filter>
  </defs>
  <g filter="url(#shadow)">
    <g transform="translate(180 92)">
      <rect x="-11" y="-82" width="22" height="35" rx="2" fill="#ed1c24" transform="rotate(0)"/>
      <rect x="-11" y="-82" width="22" height="35" rx="2" fill="#ed1c24" transform="rotate(25.714)"/>
      <rect x="-11" y="-82" width="22" height="35" rx="2" fill="#ed1c24" transform="rotate(51.428)"/>
      <rect x="-11" y="-82" width="22" height="35" rx="2" fill="#ed1c24" transform="rotate(77.142)"/>
      <rect x="-11" y="-82" width="22" height="35" rx="2" fill="#ed1c24" transform="rotate(102.856)"/>
      <rect x="-11" y="-82" width="22" height="35" rx="2" fill="#ed1c24" transform="rotate(128.57)"/>
      <rect x="-11" y="-82" width="22" height="35" rx="2" fill="#ed1c24" transform="rotate(154.284)"/>
      <rect x="-11" y="-82" width="22" height="35" rx="2" fill="#ed1c24" transform="rotate(180)"/>
      <rect x="-11" y="-82" width="22" height="35" rx="2" fill="#ed1c24" transform="rotate(205.714)"/>
      <rect x="-11" y="-82" width="22" height="35" rx="2" fill="#ed1c24" transform="rotate(231.428)"/>
      <rect x="-11" y="-82" width="22" height="35" rx="2" fill="#ed1c24" transform="rotate(257.142)"/>
      <rect x="-11" y="-82" width="22" height="35" rx="2" fill="#ed1c24" transform="rotate(282.856)"/>
      <rect x="-11" y="-82" width="22" height="35" rx="2" fill="#ed1c24" transform="rotate(308.57)"/>
      <rect x="-11" y="-82" width="22" height="35" rx="2" fill="#ed1c24" transform="rotate(334.284)"/>
      <circle r="66" fill="#ed1c24"/>
      <circle r="46" fill="#25338d"/>
    </g>
    <rect x="48" y="76" width="264" height="62" rx="2" fill="#25338d" stroke="#111a5f" stroke-width="3"/>
    <text x="180" y="97" text-anchor="middle" font-family="Inter, Arial, sans-serif" font-size="24" font-weight="900" fill="#ffffff" letter-spacing="1.5">ETHIO</text>
    <text x="180" y="128" text-anchor="middle" font-family="Inter, Arial, sans-serif" font-size="48" font-weight="900" fill="#ffffff" letter-spacing="-1">ROBOTICS</text>
  </g>
</svg>
